# xmcd database file
#
# Track frame offsets:
# 150
# 19377
# 34921
# 51378
# 70047
# 88285
# 109526
# 126428
# 144175
# 161060
# 177996
# 191744
# 207171
# 228456
#
# Disc length: 3247 seconds
#
# Revision: 0
# Processed by: cddbd v1.5.2PL0 Copyright (c) Steve Scherf et al.
# Submitted via: CD-Runner 2010.10
#
DISCID=cc0cad0e
DTITLE=Dann Downes - The Shaggy Dogs-One Runs At Midnight
DYEAR=2006
DGENRE=Blues
TTITLE0=I Am Loved
TTITLE1=Cool White Hands
TTITLE2=A Sound Like Leaves
TTITLE3=Branded
TTITLE4=Keep On Driving
TTITLE5=Wandering Boy
TTITLE6=A Distant Parade
TTITLE7=Box Of Magazines
TTITLE8=Meet Me By The Lion
TTITLE9=Blue Days
TTITLE10=Still A Fool
TTITLE11=Why
TTITLE12=Hard Country
TTITLE13=John The Revelator
EXTD=
EXTT0=	
EXTT1=	
EXTT2=	
EXTT3=	
EXTT4=	
EXTT5=	
EXTT6=	
EXTT7=	
EXTT8=	
EXTT9=	
EXTT10=	
EXTT11=	
EXTT12=	
EXTT13=	
PLAYORDER=
